Coordinates
version=1
nRows=8
nColumns=63
inDegrees=yes

Units are S.I. units (second, meters, Newtons, ...)
If the header above contains a line with 'inDegrees', this indicates whether rotational values are in degrees (yes) or radians (no).

endheader
time	pelvis_tilt	pelvis_list	pelvis_rotation	pelvis_tx	pelvis_ty	pelvis_tz	hip_flexion_r	hip_adduction_r	hip_rotation_r	knee_angle_r	knee_angle_r_beta	ankle_angle_r	subtalar_angle_r	mtp_angle_r	hip_flexion_l	hip_adduction_l	hip_rotation_l	knee_angle_l	knee_angle_l_beta	ankle_angle_l	subtalar_angle_l	mtp_angle_l	L5_S1_Flex_Ext	L5_S1_Lat_Bending	L5_S1_axial_rotation	L4_L5_Flex_Ext	L4_L5_Lat_Bending	L4_L5_axial_rotation	L3_L4_Flex_Ext	L3_L4_Lat_Bending	L3_L4_axial_rotation	L2_L3_Flex_Ext	L2_L3_Lat_Bending	L2_L3_axial_rotation	L1_L2_Flex_Ext	L1_L2_Lat_Bending	L1_L2_axial_rotation	L1_T12_Flex_Ext	L1_T12_Lat_Bending	L1_T12_axial_rotation	Abs_r3	Abs_r2	Abs_r1	Abs_t1	Abs_t2	neck_flexion	neck_bending	neck_rotation	arm_flex_r	arm_add_r	arm_rot_r	elbow_flex_r	pro_sup_r	wrist_flex_r	wrist_dev_r	arm_flex_l	arm_add_l	arm_rot_l	elbow_flex_l	pro_sup_l	wrist_flex_l	wrist_dev_l
0.000000	5.227500	-2.649332	101.909620	-0.139639	0.792648	0.613089	2.516939	-0.579201	-24.322387	16.601514	0.289751	35.030092	14.822505	0.000000	-0.509572	-2.898375	16.283196	2.243750	0.039161	33.133177	-4.611374	0.000000	0.146429	0.710115	-1.008087	0.271934	0.944453	-1.071092	0.240569	1.726573	-1.071092	0.167354	1.726573	-0.882076	0.135974	1.448066	-0.819071	0.083670	1.099968	-0.756065	1.045930	8.032960	-5.606678	0.000000	0.000000	22.501832	-3.578825	0.385784	15.061580	-7.294762	59.499850	35.081338	47.141218	-2.858167	11.537008	23.676429	5.795969	107.713459	18.714748	79.162172	-19.384500	-2.636120
0.016667	5.131559	-2.719475	101.661213	-0.139648	0.792503	0.612721	2.725510	-0.838414	-24.283493	17.193028	0.300075	35.025162	15.017329	0.000000	-0.930437	-2.716974	18.763684	1.525766	0.026630	31.920731	-8.289871	0.000000	0.148440	0.709411	-1.049011	0.275668	0.943517	-1.114574	0.243872	1.724862	-1.114574	0.169652	1.724862	-0.917884	0.137842	1.446631	-0.852321	0.084819	1.098878	-0.786758	1.060293	8.025001	-5.834282	0.000000	0.000000	22.694204	-3.581356	0.939269	15.191696	-6.989139	59.492918	34.861055	50.613154	-3.481380	10.667889	22.590548	4.097926	86.510843	22.501798	81.722833	-16.675917	-1.886355
0.033333	5.050156	-2.769996	101.486463	-0.139743	0.792391	0.612444	2.878695	-1.047416	-24.245165	17.642485	0.307919	35.041361	15.142837	0.000000	-1.235902	-2.563439	20.504391	1.012828	0.017677	31.061805	-10.895375	0.000000	0.149990	0.708298	-1.075964	0.278547	0.942036	-1.143212	0.246419	1.722155	-1.143212	0.171424	1.722155	-0.941468	0.139281	1.444360	-0.874221	0.085704	1.097153	-0.806973	1.071365	8.012404	-5.984188	0.000000	0.000000	22.827067	-3.588302	1.330593	15.254833	-6.761088	59.427436	34.669668	53.245064	-3.953868	9.998428	21.772827	2.923218	71.743957	25.142600	82.894371	-14.519910	-1.367166
0.050000	4.984295	-2.803700	101.379749	-0.139918	0.792306	0.612256	2.983667	-1.209006	-24.208671	17.964157	0.313534	35.074040	15.204154	0.000000	-1.431964	-2.437773	21.569338	0.692476	0.012086	30.524991	-12.522333	0.000000	0.151142	0.707175	-1.091697	0.280686	0.940543	-1.159928	0.248311	1.719426	-1.159928	0.172740	1.719426	-0.955234	0.140350	1.442072	-0.887003	0.086363	1.095414	-0.818772	1.079592	7.999708	-6.071689	0.000000	0.000000	22.909189	-3.597493	1.585276	15.262865	-6.602155	59.320684	34.505113	55.125218	-4.294286	9.506075	21.197635	2.220336	62.795195	26.744867	82.800352	-12.871795	-1.057504
0.066667	4.934980	-2.823391	101.335448	-0.140168	0.792245	0.612152	3.047594	-1.325987	-24.175276	18.172316	0.317167	35.118551	15.206405	0.000000	-1.524620	-2.339978	22.022543	0.552250	0.009639	30.278881	-13.265196	0.000000	0.151958	0.706445	-1.098958	0.282201	0.939572	-1.167643	0.249652	1.717651	-1.167643	0.173673	1.717651	-0.961588	0.141108	1.440583	-0.892904	0.086829	1.094284	-0.824219	1.085421	7.991451	-6.112076	0.000000	0.000000	22.949336	-3.606757	1.728839	15.227670	-6.503887	59.189945	34.365326	56.341888	-4.521291	9.168278	20.839339	1.937775	59.046955	27.416316	81.564342	-11.686887	-0.936317
0.083333	4.903215	-2.831874	101.347938	-0.140488	0.792201	0.612127	3.077649	-1.401159	-24.146245	18.281234	0.319068	35.170247	15.154715	0.000000	-1.519864	-2.270058	21.928025	0.579687	0.010117	30.292066	-13.218410	0.000000	0.152501	0.706509	-1.100499	0.283209	0.939657	-1.169280	0.250543	1.717806	-1.169280	0.174293	1.717806	-0.962936	0.141612	1.440713	-0.894155	0.087139	1.094383	-0.825374	1.089296	7.992173	-6.120643	0.000000	0.000000	22.956274	-3.613923	1.786804	15.161124	-6.457831	59.052498	34.248242	56.983344	-4.653538	8.962488	20.672309	2.024028	59.881631	27.264663	79.309910	-10.920504	-0.982554
0.100000	4.890004	-2.831955	101.411594	-0.140872	0.792171	0.612178	3.081001	-1.437324	-24.122847	18.305184	0.319486	35.224480	15.054209	0.000000	-1.423694	-2.228016	21.349804	0.762328	0.013305	30.533140	-12.476425	0.000000	0.152832	0.707768	-1.099067	0.283825	0.941331	-1.167759	0.251088	1.720867	-1.167759	0.174672	1.720867	-0.961684	0.141920	1.443280	-0.892992	0.087328	1.096332	-0.824300	1.091665	8.006411	-6.112681	0.000000	0.000000	22.938770	-3.616819	1.784689	15.075103	-6.455533	58.925624	34.151796	57.137857	-4.709683	8.866153	20.670913	2.427587	64.681621	26.397623	76.160623	-10.527961	-1.175165
0.116667	4.896351	-2.826437	101.520796	-0.141315	0.792150	0.612299	3.064822	-1.437281	-24.106345	18.258438	0.318670	35.276602	14.910011	0.000000	-1.242105	-2.213855	20.351898	1.087711	0.018984	30.970693	-11.133688	0.000000	0.153015	0.710623	-1.097413	0.284165	0.945128	-1.166001	0.251389	1.727808	-1.166001	0.174881	1.727808	-0.960236	0.142090	1.449101	-0.891648	0.087433	1.100754	-0.823060	1.092973	8.038704	-6.103483	0.000000	0.000000	22.905591	-3.613275	1.748018	14.981483	-6.488541	58.826605	34.073924	56.893699	-4.708381	8.856722	20.809519	3.096945	72.829318	24.922910	72.240046	-10.464574	-1.493100
